<?xml version="1.0" encoding="UTF-8"?>
<svg id="_レイヤー_2" data-name="レイヤー 2" xmlns="http://www.w3.org/2000/svg" viewBox="0 0 612.32 208.62">
  <defs>
    <style>
      .cls-1 {
        fill: none;
      }

      .cls-2 {
        fill: #5cba9b;
      }

      .cls-3 {
        fill: #e6508f;
      }

      .cls-4 {
        fill: #fff;
      }

      .cls-5 {
        fill: #448ec0;
      }

      .cls-6 {
        fill: #d6b632;
      }
    </style>
  </defs>
  <g id="_ロゴ" data-name="ロゴ">
    <g>
      <rect x="188.05" y="34.96" width="244.91" height="1"/>
      <g>
        <polygon points="209.71 208.62 201.89 194.83 209.71 181.04 210.58 181.54 203.04 194.83 210.58 208.12 209.71 208.62"/>
        <g>
          <path d="M254.21,196.3c-1.18,1.5-2.34,2.75-3.8,4.07-.37.33-.44.4-.61.57l-1.38-1.92c.39-.2.76-.48,1.61-1.21,1.26-1.08,1.83-1.69,2.92-3.1l1.27,1.59ZM250.39,187.21c1.37,1.06,2.03,1.69,3.18,2.93l-1.59,1.48c-1.15-1.39-1.7-1.94-3.18-3.1l1.59-1.32ZM259.45,191.71c-.06.24-.07.48-.07.77,0,1.34.22,2.77.57,3.68.52,1.28,1.42,2.47,2.58,3.37.9.71,1.61,1.1,3.1,1.72-.52.68-.85,1.21-1.18,1.94-1.81-.99-2.71-1.63-3.71-2.6-1.11-1.1-1.88-2.35-2.34-3.78-.39,1.36-1.07,2.64-1.9,3.61-.96,1.1-2.2,1.96-3.97,2.8-.3-.68-.57-1.06-1.16-1.74,1.51-.61,2.53-1.26,3.53-2.27,1.59-1.59,2.47-4,2.47-6.69,0-.27-.02-.5-.07-.82h2.16ZM262.37,189.11c.85,0,1.38-.04,1.79-.11l1.11,1.06c-.13.31-.18.44-.41.95-.79,1.87-1.44,2.97-2.62,4.43-.67-.55-.79-.64-1.7-1.15,1.11-1.12,1.74-2.07,2.29-3.43h-6.13c-.78,1.5-1.5,2.53-2.73,3.85-.46-.62-.9-1.04-1.53-1.48,1.94-1.72,3.16-3.92,3.75-6.82l2.22.38c-.15.35-.19.46-.55,1.43-.11.29-.18.51-.33.88h4.86Z"/>
          <path d="M269.28,188.76c0-.82-.04-1.47-.11-2.2h2.29c-.09.59-.13,1.26-.13,2.2v1.8h2.99v-2.02c0-.77-.04-1.36-.13-2h2.22c-.07.64-.11,1.25-.11,1.98v2.03h3.1v-2.05c0-.83-.04-1.34-.11-1.96h2.25c-.09.62-.13,1.21-.13,1.98v2.03h.65c.85,0,1.46-.04,2.03-.11v2.05c-.61-.07-1.18-.11-2.03-.11h-.65v4.03c0,.55.02,1.1.07,1.65-.5-.04-.92-.05-1.55-.05h-4.08c-.63,0-1.03.02-1.61.05.06-.4.07-.93.07-1.56v-4.12h-2.99v8.14h9.62c.98,0,1.59-.04,2.33-.11v2.13c-.74-.07-1.44-.11-2.33-.11h-9.62v.97h-2.16c.07-.77.11-1.54.11-2.6v-8.41h-.37c-.83,0-1.46.04-2.03.11v-2.05c.59.07,1.2.11,2.03.11h.37v-1.8ZM276.29,192.39v3.85h3.1v-3.85h-3.1Z"/>
          <path d="M287.89,196.09c0-.93.02-1.41.06-2.11-.74,1.08-1,1.39-1.88,2.29-.37-1.08-.55-1.48-.98-2.11,1.7-1.69,2.82-3.32,3.71-5.44.37-.9.63-1.76.72-2.4l2.1.71c-.57,1.54-.98,2.49-1.72,3.9v10.15c0,.9.04,1.54.13,2.22h-2.27c.09-.62.13-1.23.13-2.25v-4.97ZM296.55,193.22c.37,2.4.94,4.12,1.88,5.64.63,1.03,1.48,1.94,1.81,1.94.37,0,.61-.9.79-3.08.74.62,1.13.88,1.75,1.19-.42,3.13-1.07,4.31-2.38,4.31-.89,0-1.85-.64-2.82-1.87-1.62-2.02-2.62-4.62-3.1-7.97l-1.96.17c-.81.06-1.27.11-1.85.22l-.06-2.05c.3.02.44.02.57.02.35,0,.94-.04,1.4-.07l1.68-.13c-.13-1.47-.13-1.65-.17-3.48,0-.37-.06-1.04-.09-1.36l2.23-.04c-.07.38-.09.75-.09,1.38,0,1.08.04,1.85.18,3.32l3.95-.31c1.09-.09,1.5-.15,2.01-.26l.06,2.07c-.3-.02-.42-.02-.54-.02-.3,0-.76.02-1.37.07l-3.91.31ZM298.49,186.64c1.03.9,1.27,1.14,2.82,2.84l-1.53,1.39c-.42-.62-.52-.71-1.35-1.61q-.87-.93-1.38-1.41l1.44-1.21Z"/>
          <path d="M303.83,195.64c.79-.55,1.59-1.45,4.02-4.49.48-.59.79-.92,1.15-1.15.5-.37,1.02-.55,1.48-.55.55,0,1.11.24,1.66.7.26.22.66.64,1.24,1.32,1.68,1.96,3.47,3.78,5.52,5.61.94.83,1.4,1.19,2.01,1.54l-1.13,2.6c-.18-.22-.26-.29-.54-.53-.96-.84-2.42-2.22-3.77-3.55-1.4-1.43-1.44-1.48-3.42-3.72-1.14-1.3-1.26-1.39-1.61-1.39-.29,0-.48.17-1.11.99-1.51,2.02-2.53,3.24-3.64,4.44-.2.22-.24.27-.39.49l-1.5-2.29Z"/>
          <path d="M320.78,190.58c.63-.05.92-.09,2.16-.37,4.21-.9,5.21-1.04,7.35-1.04,3.66,0,6.04,2.03,6.04,5.15,0,2.49-1.48,4.6-4.1,5.86-1.68.83-3.12,1.16-6.5,1.52-.24-.99-.41-1.37-.94-2.36,2.95-.13,4.5-.4,6.07-1.08,1.33-.59,2.42-1.63,2.79-2.71.13-.37.2-.83.2-1.3,0-1.01-.52-1.89-1.4-2.38-.59-.33-1.37-.5-2.38-.5-1.92,0-4.3.42-7.27,1.3-.94.28-1.09.31-1.48.51l-.54-2.6Z"/>
          <path d="M345.23,186.84q-.11.35-.29,1.23c-.09.44-.18.81-.39,1.61,1.27-.13,2.23-.29,2.95-.51l.05,2.11c-.2.02-.24.02-.59.09-.66.11-1.79.24-2.94.33-.54,1.83-1.2,3.57-2.03,5.31-.42.9-.59,1.23-1.29,2.51q-.24.44-.35.66l-2.12-1.17c.65-.84,1.16-1.67,1.79-2.93.72-1.47,1.03-2.22,1.74-4.33-.83.02-.94.02-1.16.02-.24,0-.35,0-.74-.02l-.98-.02v-2.09c.67.13,1.37.17,2.49.17.22,0,.54,0,.94-.02.31-1.3.52-2.4.55-3.19l2.36.24ZM353.6,201.68c-.67-.79-1.74-1.65-2.83-2.27.02.17.04.29.04.37,0,.68-.31,1.47-.79,1.94-.65.66-1.75,1.03-3.07,1.03-2.44,0-4.02-1.21-4.02-3.08s1.64-3.15,3.99-3.15c.55,0,.94.04,1.72.17-.06-.84-.09-1.56-.09-2.11,0-.71.04-1.25.15-1.85l2.14.11c-.18.68-.22,1.1-.22,1.85s.04,1.47.17,2.51c1.33.59,1.51.68,2.92,1.69.28.18.35.26.65.5q.15.15.28.26l-1.02,2.05ZM347.04,198.33c-1.2,0-1.98.5-1.98,1.26s.67,1.19,1.81,1.19c1.25,0,1.86-.51,1.86-1.54,0-.18-.04-.62-.04-.62-.65-.22-1.09-.29-1.66-.29ZM353.69,193.25c-1.61-1.06-3.25-1.85-5.32-2.57l1.11-1.78c2.18.82,3.56,1.47,5.21,2.46l-1,1.89Z"/>
          <path d="M367,188.14c-.44.33-.52.4-2.81,2.51-.83.71-2.47,2-3.86,3.02-.57.42-.7.59-.7.79,0,.27.04.29,1.66,1.52,2.77,2.07,3.6,2.77,5.82,4.76.2.2.29.28.54.46l-1.9,1.92c-1.05-1.45-3.53-3.67-7.16-6.41-1.22-.95-1.55-1.43-1.55-2.27,0-.55.2-1.06.61-1.5.24-.24.26-.28,1.62-1.3,2.53-1.89,4.99-4.12,5.61-5.11l2.12,1.61ZM366.5,190.93c.79.86,1.31,1.56,1.94,2.69l-1.29.68c-.63-1.12-1.14-1.85-1.94-2.73l1.29-.64ZM369.37,193.14c-.55-1.01-1.16-1.87-1.88-2.66l1.24-.64c.83.84,1.35,1.54,1.92,2.58l-1.27.71Z"/>
          <path d="M388.65,191.38c-.63-.05-1.24-.09-2.03-.09h-12.56c-.9,0-1.42.02-2.05.09v-1.94c.55.07,1.14.11,2.03.11h12.59c.89,0,1.46-.04,2.01-.11v1.94ZM376.05,203.28h-2.07c.05-.57.09-1.17.09-1.7v-2.57c0-.7-.02-1.04-.09-1.59.44.05.79.07,1.46.07h9.73c.74,0,1.07-.02,1.46-.07-.06.42-.07.79-.07,1.59v2.58c0,.77.02,1.19.09,1.71h-2.1v-.79h-8.49v.77ZM386.56,188.67c-.63-.07-1.18-.09-2.03-.09h-8.36c-.87,0-1.4.02-2.03.09v-1.83c.61.07,1.2.11,2.03.11h8.36c.85,0,1.44-.04,2.03-.11v1.83ZM386.39,193.95c-.52-.07-1.03-.09-1.87-.09h-8.34c-.85,0-1.38.02-1.88.09v-1.78c.5.05.98.07,1.88.07h8.34c.91,0,1.38-.02,1.87-.07v1.78ZM386.39,196.52c-.54-.07-1-.09-1.87-.09h-8.34c-.89,0-1.37.02-1.88.09v-1.8c.5.07.98.09,1.88.09h8.34c.91,0,1.37-.02,1.87-.09v1.8ZM376.05,200.75h8.51v-1.56h-8.51v1.56Z"/>
          <path d="M399.69,197.65h5.34c.89,0,1.59-.04,2.16-.11v1.81c-.61-.07-1.27-.11-2.16-.11h-3.73c1.55,1.08,3.47,1.74,6.26,2.13-.46.6-.68,1.01-1.02,1.8-1.64-.4-2.57-.68-3.54-1.1-1.38-.59-2.31-1.17-3.34-2.09v.11q0,.05.02.22c0,.11,0,.26.02.44q0,.07.02.42v.68c0,.81.02,1.1.11,1.56h-2.16c.09-.53.11-.93.11-1.56v-.66c.02-.27.04-.49.04-.71,0-.11.02-.22.04-.5-1.98,1.69-3.42,2.38-6.5,3.21-.33-.73-.57-1.12-1.09-1.69,2.58-.44,4.52-1.16,6.02-2.25h-3.51c-.89,0-1.53.04-2.16.11v-1.81c.57.07,1.22.11,2.16.11h5.02v-.97h-3.06c-.55,0-1.14.02-1.7.05.04-.51.06-.88.06-1.5v-2.71h-.5c-1.02,0-1.53.02-2.11.09v-1.78c.5.09.96.11,1.83.11h.78c0-.46-.02-.73-.07-1.04h1.92c.02-.26.04-.5.04-.81h-2.33c-.89,0-1.55.04-2.14.09v-1.8c.61.07,1.22.11,2.14.11h2.33v-.2c0-.33-.02-.6-.09-.99h2.09c-.05.42-.07.64-.07.99v.2h3.75v-.2c0-.33-.02-.59-.07-.99h2.09c-.05.35-.07.62-.07.99v.2h2.44c.96,0,1.55-.04,2.14-.11v1.8c-.61-.05-1.26-.09-2.14-.09h-2.44c0,.37,0,.59.04.84h1.96c-.07.33-.09.64-.09,1.01h.57c.98,0,1.55-.04,2.11-.11v1.78c-.55-.07-1.09-.09-2.11-.09h-.57v.92c0,.55.02.9.07,1.19-.5-.02-1.13-.04-1.72-.04h-3.58c-.63,0-1.11.02-1.72.04.04-.29.06-.66.06-1.06v-1.04h-2.57v2.69h9.29c1.09,0,1.53-.02,2.01-.09v1.65c-.57-.07-1.02-.09-1.99-.09h-4.63v.97ZM395.06,190.07c-.02.22-.04.49-.04.88h2.57c0-.4-.02-.64-.07-1.01h1.98c-.04.29-.06.55-.06,1.01h3.19c0-.39-.02-.57-.04-.88h-1.99c.04-.42.04-.51.04-.97h-3.75c0,.5,0,.62.05.97h-1.88ZM399.43,193.18h3.19v-.66h-3.19v.66Z"/>
        </g>
        <rect x="212.14" y="194.33" width="29.97" height="1"/>
        <polygon points="446.57 208.62 445.7 208.12 453.24 194.83 445.7 181.54 446.57 181.04 454.39 194.83 446.57 208.62"/>
        <rect x="414.17" y="194.33" width="29.97" height="1"/>
      </g>
      <polygon points="587.21 116.74 120.9 116.74 103.49 78.33 104.4 77.91 121.54 115.74 587.21 115.74 587.21 116.74"/>
      <path class="cls-6" d="M544.03,81.44c-7.4,6.09-18.05,5.57-25.47,11.45-8.85,7.71-14.74,24.09-10.52,35.43,7.61,19.23,35.85,29.53,52.97,17.13,4-2.74,7.85-5.75,12.35-7.59,2.65-1.12,5.51-1.91,8.43-2.7,14.49-3.23,29.02-13.9,30.35-29.68.71-7.46-.58-15.32-5.15-21.27-6.15-8.08-17.36-15.68-27.16-17.66-9.04-1.53-18.96,1.38-26.14,6.73-3.37,2.47-6.25,5.56-9.55,8.09l-.11.08Z"/>
      <path class="cls-5" d="M535.41,60.02c-6.21-2.97-13.39-3.87-20.13-2.47-4.72.93-9.04,3.29-13.26,4.49-3.18.96-6.51,1.28-9.82,1.02-4.58-.31-9.59-1.7-14.54-1.43-3.72.16-7.41.98-10.85,2.42-27.52,11.8-25.71,51.64,3.33,60.22,19.25,5.42,24.4-7.53,41.79-4.49,10.41,2.09,20.26,1.29,28.96-5.39,18.88-14.28,16.23-44.15-5.33-54.31l-.14-.07Z"/>
      <path class="cls-3" d="M579.75,32.97c-8.68-4.69-12.31-15.05-20.8-19.84-10.78-5.45-28.68-4.71-37.85,3.71-15.38,14.72-14.24,45.64,4.22,57.14,4.17,2.74,8.53,5.25,12.03,8.83,2.1,2.09,3.96,4.52,5.84,6.99,8.71,12.56,24.51,22.27,40.07,17.41,7.39-2.22,14.38-6.49,18.28-13.16,5.31-8.99,8.21-22.64,6.3-32.74-2.05-9.21-8.67-17.54-16.55-22.31-3.66-2.25-7.72-3.8-11.41-5.96l-.12-.07Z"/>
      <path class="cls-2" d="M482.52,8.67c-9.22-.56-16.4-7.93-25.5-8.66-11.31-.38-26.23,7.31-30.7,18.09-7.26,18.58,5.9,44.4,26.13,46.89,4.62.69,9.32,1.1,13.7,2.76,2.6.95,5.15,2.28,7.73,3.64,12.35,7.24,29.61,9.25,40.92-1.01,5.4-4.8,9.66-11.19,10.34-18.4.97-9.74-1.95-22.48-7.57-30.31-5.38-7.02-14.29-11.49-22.87-12.43-4-.47-8.06-.18-12.05-.56h-.13Z"/>
      <path class="cls-3" d="M173.25,80.66c-1.53,4.22-2.4,8.34-2.28,11.95-.59-.14-1.16-.31-1.71-.5.06-3.43.9-7.31,2.4-11.45l12.12-33.47c.6-.22,1.2-.41,1.8-.58l-12.33,34.05Z"/>
      <path d="M231.29,45.47l-12.58,34.74c-5.13,14.16-15.51,25.22-31.69,25.22-11.4,0-15.81-5.37-16.04-12.81-.12-3.62.75-7.73,2.28-11.95l12.75-35.19h-1.59l-12.75,35.19c-1.5,4.14-2.34,8.01-2.4,11.45-.17,8.93,4.9,14.92,17.26,14.92,16.77,0,28.17-11.32,33.79-26.82l12.58-34.74h-1.59ZM221.9,45.47l-12.26,33.85c-4.42,12.2-9.89,17.1-19.36,17.1-4.74,0-7.53-1.28-8.71-3.83-1.31-2.78-.69-7.07,1.4-12.83l12.42-34.29h-6.28l-12.62,34.83c-1.92,5.3-2.56,9.54-2.12,12.83.85,6.55,5.98,9.35,13.8,9.35,12.16,0,21.99-7.22,27.57-22.63l12.46-34.39h-6.29Z"/>
      <path d="M223.55,106.23h-1.59l22.01-60.76h1.59l-22.01,60.76ZM256.61,84.67l-1.43,1.16-7.17-21.2-15.07,41.61h-6.29l22.01-60.76h6.04l7.12,22.27,23.34-22.27h1.76l-24.74,23.61.93,2.76,27.59-26.37h6.04l-22.01,60.76h-6.29l18.01-49.71-4.75,4.54-16.36,45.17h-1.59l15.52-42.85-19.86,18.71-8.44-25.57-1.97,5.43,7.63,22.72Z"/>
      <path d="M326.55,45.11l-10.57,14.06-33.15,44.07-2.24,2.99h1.59l1.73-2.3,33.37-44.37,10.87-14.44h-1.59ZM330.92,106.23h6.55l-2.27-61.11h-3.95l-11.64,15.48-33.4,44.42-.92,1.22h6.54l.03-.05,14.25-19.02h19.55l.56,19.06h1.59l-.56-19.06h3.02l.64,19.06ZM323.46,63.59l1.47-2,.12,4.13.35,11.02h-11.66l9.71-13.15ZM310.34,81.29l2.16-2.94h14.6l-.03-.86-.22-7.45-.32-10.5,2.93-3.92.77,25.67h-19.89Z"/>
      <path d="M344.64,107.03h-1.59l22.3-61.57h1.59l-22.3,61.57ZM377.8,85.19l-1.43,1.17-7.07-21.49-15.27,42.16h-6.29l22.3-61.57h6.04l7.01,22.57,23.44-22.57h1.76l-24.86,23.92.92,2.8,27.71-26.72h6.04l-22.3,61.57h-6.29l18.25-50.37-4.77,4.6-16.58,45.77h-1.59l15.73-43.42-19.95,18.96-8.32-25.91-1.99,5.51,7.52,23.02Z"/>
      <path class="cls-4" d="M466.27,75.76c3.36-9.27,1.14-20.05-12.03-20.05-12.08,0-22.5,9.53-26.37,20.22-4.32,11.94,1.21,20.05,11.45,20.05,11.66,0,22.76-8.64,26.96-20.22Z"/>
      <path class="cls-4" d="M578.93,75.76c3.36-9.27,1.14-20.05-12.03-20.05-12.08,0-22.5,9.53-26.37,20.22-4.32,11.94,1.21,20.05,11.45,20.05,11.66,0,22.76-8.64,26.96-20.22Z"/>
      <path d="M557.55,81.16c.67-3.94.28-4.56-3.39-5.31,4.22-.76,5.05-1.37,7.24-5.31-.67,3.94-.28,4.56,3.39,5.31-4.22.76-5.05,1.37-7.24,5.31Z"/>
      <path d="M445.15,81.16c.67-3.94.28-4.56-3.39-5.31,4.22-.76,5.05-1.37,7.24-5.31-.67,3.94-.28,4.56,3.39,5.31-4.22.76-5.05,1.37-7.24,5.31Z"/>
      <path d="M435.4,107.03c-17.36,0-25.2-13.81-18.87-31.27,5.74-15.86,22.25-31.09,41.8-31.09,18.12,0,25.59,13.9,19.33,31.18-6.26,17.28-24.05,31.18-42.25,31.18ZM457.71,46.36c-18.46,0-34.14,14.34-39.59,29.4-6,16.57,1.45,29.58,17.89,29.58s34.1-13.1,40.04-29.49c5.94-16.39-1.23-29.49-18.34-29.49ZM437.11,102.31c-14.76,0-21.27-11.67-15.89-26.55,4.91-13.54,18.86-26.37,35.39-26.37,15.27,0,21.66,11.76,16.34,26.46s-20.49,26.46-35.84,26.46ZM466.27,75.76c3.36-9.27,1.14-20.05-12.03-20.05-12.08,0-22.5,9.53-26.37,20.22-4.32,11.94,1.21,20.05,11.45,20.05,11.66,0,22.76-8.64,26.96-20.22Z"/>
      <path d="M538.06,45.47l-.58,1.6h-47.56l.58-1.6h47.56ZM534.29,55.89h-18.12l-18.23,50.34h-6.29l18.23-50.34h-3.1l-18.23,50.34h-1.59l18.23-50.34h-18.46l2.13-5.88h47.56l-2.13,5.88Z"/>
      <path d="M547.81,107.03c-17.36,0-25.2-13.81-18.87-31.27,5.74-15.86,22.25-31.09,41.8-31.09,18.12,0,25.59,13.9,19.32,31.18-6.26,17.28-24.05,31.18-42.25,31.18ZM570.12,46.36c-18.45,0-34.14,14.34-39.59,29.4-6,16.57,1.45,29.58,17.89,29.58s34.1-13.1,40.04-29.49c5.94-16.39-1.23-29.49-18.34-29.49ZM549.52,102.31c-14.76,0-21.27-11.67-15.89-26.55,4.91-13.54,18.86-26.37,35.39-26.37,15.27,0,21.66,11.76,16.34,26.46-5.32,14.7-20.49,26.46-35.84,26.46ZM578.68,75.76c3.36-9.27,1.14-20.05-12.03-20.05-12.08,0-22.5,9.53-26.37,20.22-4.32,11.94,1.21,20.05,11.45,20.05,11.66,0,22.76-8.64,26.96-20.22Z"/>
      <rect y="61.7" width="88.27" height="1"/>
      <path d="M84.95,51.39c-.2,0-.38-.12-.46-.31l-9.37-23.18c-.1-.26.02-.55.28-.65.26-.1.55.02.65.28l9.37,23.18c.1.26-.02.55-.28.65-.06.02-.12.04-.19.04ZM73.71,23.57c-.2,0-.38-.12-.46-.31l-.75-1.86c-.1-.26.02-.55.28-.65.26-.1.55.02.65.28l.75,1.86c.1.26-.02.55-.28.65-.06.02-.12.04-.19.04Z"/>
      <path d="M50.2,94.05c-.15,0-.29-.06-.39-.19-.17-.22-.14-.53.08-.7l2.35-1.87c.22-.17.53-.14.7.08s.14.53-.08.7l-2.35,1.87c-.09.07-.2.11-.31.11ZM58.02,87.81c-.15,0-.29-.06-.39-.19-.17-.22-.14-.53.08-.7l19.55-15.58c.22-.17.53-.14.7.08.17.22.14.53-.08.7l-19.55,15.58c-.09.07-.2.11-.31.11Z"/>
      <path d="M107.04,60.58c-1.13.29-2.2.59-3.22.89h-.01c-2.71.8-5.03,1.65-7.12,2.65-1.48.72-2.84,1.51-4.12,2.42-4.27,3-7.74,7.27-12.16,14.17,1.42-6.39,1.59-10.51-.2-13.39-1.6-2.58-4.59-4-9.28-5.18,13.32-3.44,18.27-7.09,26.63-20.12-1.37,6.16-1.58,10.21.03,13.07.05.11.11.21.17.31.48.79,1.1,1.46,1.85,2.06,1.24.99,2.87,1.75,4.91,2.41.78.25,1.62.49,2.52.71Z"/>
      <g>
        <path d="M169.16,149.87c-4.88,0-6.62.11-6.94.11-.54,0-.6-.05-.6-.6v-4.18c0-.54.05-.6.6-.6.33,0,2.06.11,6.94.11h12.53v-7.7h-7.75c-5.26,0-7.16.11-7.48.11-.49,0-.54-.05-.54-.6v-4.28c0-.54.05-.6.54-.6.33,0,2.22.11,7.48.11h7.75v-1.9c0-3.15,0-4.28-.38-6.45,2.01.05,4.12.16,5.96.38.54.05.87.33.87.6,0,.54-.33.98-.38,1.41-.16.76-.27,1.79-.27,3.96v2.01h8.68c5.26,0,7.16-.11,7.48-.11.49,0,.54.05.54.6v4.28c0,.54-.05.6-.54.6-.33,0-2.22-.11-7.48-.11h-8.68v7.7h13.34c4.93,0,6.62-.11,6.94-.11.6,0,.65.05.65.6v4.18c0,.54-.05.6-.65.6-.33,0-2.01-.11-6.94-.11h-10.85c4.56,5.91,12.2,11.71,20.45,14.97-1.08,1.03-2.06,2.5-2.82,3.96-.38.92-.6,1.25-.92,1.25-.27,0-.65-.22-1.3-.54-7.59-4.01-13.88-9.71-18.06-16.05.11,8.03.27,16.38.27,19.03,0,.54-.05.6-.6.6h-4.88c-.54,0-.6-.05-.6-.6,0-2.49.27-10.95.33-18.93-3.96,6.02-9.65,11.39-17.19,15.83-.6.38-.98.6-1.25.6-.33,0-.54-.38-.98-1.3-.65-1.41-1.57-2.71-2.6-3.74,8.24-3.74,14.21-8.68,18.87-15.08h-9.54Z"/>
        <path d="M229.52,152.58c-4.88,0-6.56.11-6.89.11-.54,0-.6-.05-.6-.65v-3.96c0-.54.05-.6.6-.6.33,0,2.01.11,6.89.11h13.01v-11.61h-9.98c-5.21,0-6.94.11-7.27.11-.54,0-.6-.05-.6-.6v-4.01c0-.54.05-.6.6-.6.33,0,2.06.11,7.27.11h9.98v-1.14c0-3.15-.05-4.23-.38-6.4,1.95.05,3.96.16,5.86.38.54.05.76.33.76.54,0,.54-.22,1.03-.33,1.52-.16.71-.27,1.74-.27,3.9v1.19h10.79c5.21,0,6.94-.11,7.27-.11.6,0,.65.05.65.6v4.01c0,.54-.05.6-.65.6-.33,0-2.06-.11-7.27-.11h-10.79v11.61h3.42c1.52-2.6,2.77-5.1,3.58-7.38.38-.98.71-1.9.87-2.87,1.79.33,3.9.87,5.48,1.36.65.22.87.49.87.87,0,.33-.16.54-.49.71-.33.22-.71.76-1.36,1.95-1.03,1.79-2.01,3.47-3.25,5.37h4.66c4.88,0,6.56-.11,6.89-.11.54,0,.6.05.6.6v3.96c0,.6-.05.65-.6.65-.33,0-2.01-.11-6.89-.11h-10.36c4.88,5.53,10.79,9.44,19.47,13.07-1.08,1.03-2.06,2.5-2.82,3.96-.43.98-.6,1.36-.98,1.36-.27,0-.6-.22-1.25-.54-7.21-3.69-13.5-8.73-18-15.29.11,7.86.27,15.46.27,17.46,0,.54-.05.6-.6.6h-4.72c-.54,0-.6-.05-.6-.6,0-2.11.22-9.49.27-17.14-4.39,6.4-9.92,10.95-16.92,14.8-.65.33-1.03.54-1.3.54-.38,0-.54-.38-1.03-1.3-.76-1.52-1.57-2.55-2.55-3.58,7.81-3.52,13.56-7.48,18.06-13.34h-9.38ZM233.16,137.56c.6-.22.76-.22,1.08.27,1.25,2.01,2.33,3.96,3.42,6.67.22.54.05.65-.54.87l-3.9,1.46c-.71.27-.81.22-1.03-.33-.92-2.5-2.06-4.88-3.25-6.67-.33-.54-.22-.71.43-.92l3.8-1.36Z"/>
        <path d="M286.36,134.9c0-3.74-.16-5.8-.6-7.92,2.28.27,5.15.6,6.72,1.14.65.16.92.49.92.87,0,.27-.11.54-.22.81-.49,1.03-.6,2.39-.6,5.15v10.95c0,2.82.11,4.93.16,6.83,0,.81-.33,1.08-1.19,1.08h-4.34c-.76,0-1.08-.27-1.03-.92,0-1.9.16-5.04.16-7.38v-10.63ZM311.9,145.04c0,8.03-1.19,13.39-4.39,17.68-2.66,3.52-7.38,6.83-11.93,8.51-.43.16-.81.27-1.14.27-.43,0-.81-.16-1.3-.65-1.3-1.3-2.71-2.33-4.61-3.31,5.8-1.79,10.36-4.34,13.23-7.92,2.5-3.09,3.63-7.59,3.63-14.48v-10.25c0-4.66-.11-6.4-.6-8.84,2.6.22,5.21.6,7.05,1.19.54.16.76.49.76.92,0,.27-.05.6-.22.87-.49,1.14-.49,2.55-.49,5.91v10.09Z"/>
        <path d="M336.47,152.09c-5.37,0-7.43.65-7.97.65-.65,0-1.08-.33-1.25-1.14-.27-1.25-.6-3.8-.81-6.56,3.52.54,6.24.65,11.71.65h17.46c4.12,0,8.3-.11,12.47-.16.81-.05.98.11.98.76.11,1.63.11,3.47,0,5.1,0,.65-.22.87-.98.81-4.07-.05-8.08-.11-12.09-.11h-19.52Z"/>
        <path d="M408.49,133.38c1.57-.05,2.28-.38,2.98-.81.38-.27.65-.38.92-.38s.6.16.98.43c1.19.71,2.71,2.17,3.69,3.31.33.33.43.65.43.98s-.16.65-.6,1.03c-.54.49-1.08,1.03-1.63,2.06-2.33,4.61-4.88,9.06-7.97,13.12,2.22,1.79,4.28,3.69,5.86,5.48.22.22.33.49.33.76,0,.22-.11.49-.33.71-.76.92-2.44,2.66-3.36,3.42-.22.16-.43.27-.65.27-.16,0-.38-.11-.6-.33-1.3-1.52-3.47-3.69-5.26-5.26-5.53,5.97-11.12,10.2-17.3,13.56-.49.27-.92.49-1.36.49-.33,0-.65-.16-1.03-.49-1.74-1.41-3.25-2.12-5.15-2.77,8.41-4.28,13.83-8.19,19.96-14.7-2.06-1.68-4.5-3.36-7.81-5.1,1.19-1.3,2.33-2.71,3.58-3.85.22-.22.43-.38.71-.38.16,0,.33.11.54.22,1.95.92,4.34,2.49,7,4.34,2.6-3.36,4.61-6.89,6.34-10.74l-13.45.27c-4.45,5.69-7.97,9.44-11.61,12.2-.38.27-.71.49-1.08.49-.27,0-.6-.11-.87-.38-1.36-.98-2.77-1.74-4.56-2.49,7.59-6.02,11.66-11.01,15.35-17.03,1.74-2.93,2.44-4.39,2.93-6.67,1.84.65,4.66,1.57,6.34,2.66.43.22.6.54.6.87,0,.38-.27.81-.65,1.08-.49.33-.87.76-1.14,1.14-.43.76-.76,1.3-1.68,2.71l9.54-.22ZM415.54,125.9c.27-.22.49-.16.81.11,1.68,1.3,3.63,3.47,5.15,5.8.22.33.22.6-.16.87l-2.28,1.68c-.38.27-.65.22-.92-.16-1.63-2.49-3.36-4.55-5.48-6.29l2.87-2.01ZM420.36,122.38c.33-.22.49-.16.81.11,2.01,1.52,3.96,3.69,5.15,5.58.22.33.27.65-.16.98l-2.17,1.68c-.43.33-.71.16-.92-.16-1.46-2.33-3.2-4.39-5.42-6.24l2.71-1.95Z"/>
        <path d="M439.89,152.09c-5.37,0-7.43.65-7.97.65-.65,0-1.08-.33-1.25-1.14-.27-1.25-.6-3.8-.81-6.56,3.52.54,6.24.65,11.71.65h17.46c4.12,0,8.3-.11,12.47-.16.81-.05.98.11.98.76.11,1.63.11,3.47,0,5.1,0,.65-.22.87-.98.81-4.07-.05-8.08-.11-12.09-.11h-19.52Z"/>
        <path d="M509.79,132.08c1.95,0,2.93-.05,3.74-.49.22-.16.38-.22.6-.22.33,0,.6.22.92.43,1.25.98,2.5,2.39,3.53,3.8.16.27.27.49.27.71,0,.33-.22.71-.71,1.08-.7.6-1.41,1.41-2.01,2.39-2.22,3.8-4.34,6.83-6.94,10.14,5.21,3.85,10.03,8.08,15.02,13.12.27.27.43.54.43.76s-.11.49-.38.81c-1.03,1.25-2.28,2.55-3.63,3.69-.22.22-.43.33-.65.33-.27,0-.49-.16-.76-.43-4.56-5.31-9.22-9.6-14.1-13.45-6.13,6.4-12.31,11.01-18.22,14.32-.49.22-.87.43-1.25.43-.33,0-.65-.16-.92-.49-1.19-1.46-2.77-2.55-4.55-3.52,8.46-4.28,13.5-8.13,19.09-13.83,3.9-4.07,6.89-7.92,10.19-13.61l-13.99.05c-2.82,0-5.64.11-8.57.33-.43.05-.6-.33-.7-.92-.27-1.14-.49-3.74-.49-5.64,2.93.22,5.64.22,9.17.22h14.91ZM518.96,126.55c.27-.22.49-.16.81.11,1.68,1.3,3.63,3.47,5.15,5.8.22.33.22.6-.16.87l-2.28,1.68c-.38.27-.65.22-.92-.16-1.63-2.5-3.36-4.56-5.48-6.29l2.87-2.01ZM523.79,123.03c.33-.22.49-.16.81.11,2.01,1.52,3.96,3.69,5.15,5.59.22.33.27.65-.16.98l-2.17,1.68c-.43.33-.71.16-.92-.16-1.46-2.33-3.2-4.39-5.42-6.24l2.71-1.95Z"/>
      </g>
      <g>
        <polygon points="118.65 60.65 118.69 60.73 118.86 60.69 118.65 60.65"/>
        <polygon points="118.93 61.22 141.04 105.71 143.32 105.71 120.66 60.11 118.93 61.22"/>
        <polygon class="cls-1" points="210.34 0 146.18 0 120.53 57.16 210.34 0"/>
        <polygon points="234.83 0 220.95 0 125.82 60.79 148.35 105.71 164.03 105.71 140.97 59.72 234.83 0"/>
        <path d="M120.04,58.87l.62,1.24L214.04,0h-3.7l-89.82,57.16L146.18,0h-12.35l-26.15,58.26c1.81.56,3.97,1.04,6.49,1.53l4.48.86-.45-.91,1.84-.87Z"/>
        <path d="M114.2,61.74c-3.54.8-6.54,1.55-9.15,2.37l-35.43,78.93,7.89,9.95,38.99-86.86,1.87-4.55.56-.36-.25-.49-4.48,1.01Z"/>
        <polygon points="120.04 58.87 118.2 59.74 118.65 60.65 118.86 60.69 118.69 60.73 118.93 61.22 120.66 60.11 120.04 58.87"/>
        <path d="M103.51,56.49L129.26,0h-2.24l-25.05,54.93c.17.2.33.4.5.6.33.38.7.64,1.03.96Z"/>
        <path d="M99.32,65.85c-.5.24-1.02.5-1.55.81-.53.31-1.02.62-1.49.94l-34.6,76.11,12.36,17.27,1.01-2.07-11.03-15.42,35.3-77.64Z"/>
      </g>
    </g>
  </g>
</svg>