<svg xmlns="http://www.w3.org/2000/svg" viewBox="0 0 500 380"><defs><filter id="soft" x="-10%" y="-10%" width="120%" height="120%"><feGaussianBlur stdDeviation="1.4"/></filter></defs><g filter="url(#soft)"><path d="M264.5,150.0 C263.5,174.5 255.0,213.1 238.4,228.7 C221.8,244.4 188.1,243.0 165.0,243.9 C141.9,244.8 116.5,249.8 99.8,234.1 C83.1,218.4 68.5,176.6 64.8,150.0 C61.0,123.4 60.6,92.2 77.3,74.3 C94.0,56.4 137.1,41.5 165.0,42.8 C192.9,44.0 228.0,63.8 244.6,81.6 C261.1,99.5 265.5,125.5 264.5,150.0 Z" fill="#5cba9b"/><path d="M425.1,124.0 C425.2,147.8 411.0,185.2 395.5,200.9 C380.0,216.5 356.5,219.7 332.0,217.8 C307.5,215.9 266.1,205.0 248.4,189.4 C230.6,173.8 223.3,146.9 225.4,124.0 C227.5,101.1 243.2,70.8 261.0,52.0 C278.7,33.2 309.7,10.2 332.0,11.2 C354.3,12.2 379.1,39.2 394.7,58.0 C410.2,76.8 424.9,100.2 425.1,124.0 Z" fill="#e6508f"/><path d="M349.5,248.0 C350.4,272.4 340.5,306.9 323.9,324.9 C307.3,342.9 272.0,357.8 250.0,356.2 C228.0,354.5 209.8,333.2 191.7,315.2 C173.6,297.2 144.2,269.2 141.2,248.0 C138.3,226.8 155.8,202.8 174.0,188.0 C192.1,173.2 225.9,160.9 250.0,159.3 C274.1,157.7 302.2,163.8 318.8,178.6 C335.4,193.4 348.7,223.6 349.5,248.0 Z" fill="#448ec0"/><path d="M467.3,256.0 C469.0,277.4 459.9,298.0 445.0,312.4 C430.2,326.8 399.0,340.1 378.0,342.4 C357.0,344.7 334.9,340.4 319.0,326.0 C303.0,311.6 283.5,278.8 282.5,256.0 C281.5,233.2 297.3,203.8 313.2,189.1 C329.1,174.4 357.7,168.6 378.0,167.7 C398.3,166.9 419.9,169.4 434.8,184.1 C449.6,198.8 465.6,234.6 467.3,256.0 Z" fill="#d6b632"/></g></svg>